<?xml version="1.0" encoding="UTF-8" standalone="no"?>
<svg
   xmlns:dc="http://purl.org/dc/elements/1.1/"
   xmlns:cc="http://creativecommons.org/ns#"
   xmlns:rdf="http://www.w3.org/1999/02/22-rdf-syntax-ns#"
   xmlns:svg="http://www.w3.org/2000/svg"
   xmlns="http://www.w3.org/2000/svg"
   xmlns:sodipodi="http://sodipodi.sourceforge.net/DTD/sodipodi-0.dtd"
   xmlns:inkscape="http://www.inkscape.org/namespaces/inkscape"
   data-name="Layer 1 copy 2"
   viewBox="0 0 62.012791 62"
   x="0px"
   y="0px"
   version="1.1"
   id="svg16"
   sodipodi:docname="rings.svg"
   width="62.012791"
   height="62"
   inkscape:version="0.92.2 5c3e80d, 2017-08-06">
  <metadata
     id="metadata22">
    <rdf:RDF>
      <cc:Work
         rdf:about="">
        <dc:format>image/svg+xml</dc:format>
        <dc:type
           rdf:resource="http://purl.org/dc/dcmitype/StillImage" />
        <dc:title>engagement-ring-dimon-love-valentine</dc:title>
      </cc:Work>
    </rdf:RDF>
  </metadata>
  <defs
     id="defs20" />
  <sodipodi:namedview
     pagecolor="#ffffff"
     bordercolor="#666666"
     borderopacity="1"
     objecttolerance="10"
     gridtolerance="10"
     guidetolerance="10"
     inkscape:pageopacity="0"
     inkscape:pageshadow="2"
     inkscape:window-width="640"
     inkscape:window-height="480"
     id="namedview18"
     showgrid="false"
     fit-margin-top="1"
     fit-margin-right="1"
     fit-margin-bottom="1"
     fit-margin-left="1"
     inkscape:zoom="4.17193"
     inkscape:cx="33.987093"
     inkscape:cy="56.293581"
     inkscape:window-x="0"
     inkscape:window-y="0"
     inkscape:window-maximized="0"
     inkscape:current-layer="svg16" />
  <title
     id="title2">engagement-ring-dimon-love-valentine</title>
  <path
     d="m 39.508536,18 a 21.375,21.375 0 0 0 -8.494,1.756 21.286,21.286 0 0 0 -4.742,-1.423 l 4.877,-4.064 a 1,1 0 0 0 0.288,-1.14 l -2,-4.9999999 a 1,1 0 0 0 -0.929,-0.629 h -13 a 1,1 0 0 0 -0.929,0.629 l -2,4.9999999 a 1,1 0 0 0 0.288,1.14 l 5.076,4.23 a 21.494,21.494 0 1 0 13.059,40.745 21.5,21.5 0 1 0 8.506,-41.244 z m -11.18,-7.257 0.7,1.757 h -1.754 z m -1.586,-1.2429999 -1.234,2.0569999 -1.234,-2.0569999 z m -4.351,0.7479999 1.351,2.252 h -3.153 z m -1.964,-0.7479999 -1.8,2.2519999 -1.353,-2.2519999 z m -4.739,1.2429999 1.054,1.757 h -1.757 z m 0.582,3.757 h 11.476 l -3.6,3 h -4.276 z m 6.238,44.5 a 19.5,19.5 0 1 1 6.129,-38.018 21.707,21.707 0 0 0 -2.182,1.473 17.538,17.538 0 1 0 6.5,3.019 15.362,15.362 0 0 1 2.172,-0.833 19.494,19.494 0 0 1 -12.619,34.359 z m 1.991,-34.866 a 21.456,21.456 0 0 0 -0.025,30.727 15.494,15.494 0 1 1 -1.966,-30.861 15.74,15.74 0 0 1 1.991,0.134 z m 6.509,28.312 a 15.471,15.471 0 0 1 0,-25.892 15.472,15.472 0 0 1 0,25.892 z m 6.534,-28.307 a 15.493,15.493 0 1 1 -0.034,30.732 21.456,21.456 0 0 0 0.032,-30.732 z m 1.966,34.861 a 19.392,19.392 0 0 1 -6.129,-0.982 21.608,21.608 0 0 0 2.185,-1.476 17.546,17.546 0 1 0 -6.5,-3.019 15.3,15.3 0 0 1 -2.176,0.836 19.492,19.492 0 1 1 12.62,4.641 z"
     id="path4"
     inkscape:connector-curvature="0"
     style="fill:#ffffff" />
  <rect
     x="19.097912"
     y="27.997057"
     width="2.8280001"
     height="2"
     transform="rotate(-45)"
     id="rect6"
     style="fill:#ffffff" />
  <rect
     x="1.1274519"
     y="9.1982803"
     width="2"
     height="2.8280001"
     transform="rotate(-45)"
     id="rect8"
     style="fill:#ffffff" />
  <rect
     x="21.008535"
     y="1"
     width="2"
     height="3"
     id="rect10"
     style="fill:#ffffff" />
</svg>
